<svg width="73" height="72" viewBox="0 0 73 72" fill="none" xmlns="http://www.w3.org/2000/svg">
<rect x="0.5" width="72" height="72" rx="20" fill="#4671F6"/>
<path d="M36.506 15.9961C41.8659 15.9961 46.2724 20.2079 46.4961 25.5447H46.4438C46.4501 25.6999 46.4203 25.8543 46.3567 25.9961H46.669C49.103 25.9961 51.6518 27.6831 52.6738 31.7557L52.7848 32.2362L54.3226 44.6255C55.4293 52.5276 51.106 55.8506 45.2085 55.9914L44.813 55.9961H28.2332C22.2396 55.9961 17.6212 53.812 18.6367 45.1632L18.7059 44.6255L20.2614 32.2362C21.0284 27.8505 23.6033 26.1206 26.0843 26.0026L26.3595 25.9961H26.5159C26.4895 25.8468 26.4895 25.694 26.5159 25.5447C26.7395 20.2079 31.1461 15.9961 36.506 15.9961ZM30.6901 32.6547C29.7139 32.6547 28.9225 33.4692 28.9225 34.4739C28.9225 35.4787 29.7139 36.2932 30.6901 36.2932C31.6663 36.2932 32.4577 35.4787 32.4577 34.4739L32.4439 34.2457C32.3348 33.3487 31.5912 32.6547 30.6901 32.6547ZM42.2677 32.6547C41.2915 32.6547 40.5001 33.4692 40.5001 34.4739C40.5001 35.4787 41.2915 36.2932 42.2677 36.2932C43.2439 36.2932 44.0353 35.4787 44.0353 34.4739C44.0353 33.4692 43.2439 32.6547 42.2677 32.6547ZM36.4276 18.6009C32.5794 18.6009 29.4598 21.7097 29.4598 25.5447C29.4861 25.694 29.4861 25.8468 29.4598 25.9961H43.4825C43.4268 25.852 43.3974 25.6991 43.3954 25.5447C43.3954 21.7097 40.2758 18.6009 36.4276 18.6009Z" fill="white"/>
</svg>
