<svg width="73" height="72" viewBox="0 0 73 72" fill="none" xmlns="http://www.w3.org/2000/svg">
<rect x="0.5" width="72" height="72" rx="20" fill="#4671F6"/>
<g clip-path="url(#clip0_548_1104)">
<path d="M59.7722 41.8041C56.5682 54.6641 43.5462 62.4841 30.6882 59.2761C17.8362 56.0961 10.0082 43.0461 13.2202 30.2061C16.4202 17.3361 29.4462 9.51013 42.2962 12.7121C55.1562 15.9221 62.9802 28.9421 59.7722 41.8081V41.8041ZM47.0722 32.5781C47.5522 29.3981 45.1242 27.6781 41.7922 26.5181L42.8722 22.2121L40.2422 21.5521L39.1922 25.7661C38.5022 25.5921 37.7822 25.4321 37.0642 25.2661L38.1162 21.0121L35.4762 20.3521L34.3962 24.6821C33.8262 24.5481 33.2662 24.4181 32.7162 24.2821L29.0862 23.3821L28.3862 26.1961C28.3862 26.1961 30.3362 26.6461 30.2962 26.6681C31.3662 26.9401 31.5562 27.6401 31.5262 28.2001L28.5722 40.0401C28.4222 40.3721 28.0922 40.8521 27.3442 40.6681C27.3742 40.7081 25.4242 40.1881 25.4242 40.1881L24.1042 43.2081L27.5242 44.0601L29.3842 44.5441L28.3042 48.9241L30.9442 49.5781L32.0242 45.2381C32.7442 45.4381 33.4342 45.6181 34.1242 45.7841L33.1042 50.0921L35.7442 50.7521L36.8342 46.3721C41.3142 47.2261 44.6942 46.8861 46.1142 42.8241C47.2542 39.5501 46.0542 37.6641 43.6802 36.4321C45.3882 36.0461 46.6802 34.9121 47.0402 32.5721H47.0602L47.0722 32.5781ZM41.0522 41.0181C40.2442 44.2981 34.7382 42.5181 32.9522 42.0781L34.3922 36.2781C36.1842 36.7381 41.9062 37.6181 41.0522 41.0181ZM41.8722 32.5381C41.1322 35.5181 36.5482 34.0081 35.0622 33.6381L36.3702 28.3581C37.8582 28.7181 42.6442 29.4061 41.8702 32.5261V32.5381H41.8722Z" fill="white"/>
</g>
<defs>
<clipPath id="clip0_548_1104">
<rect width="48" height="48" fill="white" transform="translate(12.4961 11.9961)"/>
</clipPath>
</defs>
</svg>
