<svg width="73" height="72" viewBox="0 0 73 72" fill="none" xmlns="http://www.w3.org/2000/svg">
<rect x="0.5" width="72" height="72" rx="20" fill="#4671F6"/>
<g clip-path="url(#clip0_548_1114)">
<path d="M56.6107 24.3553C56.5861 23.0594 56.5625 21.8352 56.5625 20.6508C56.5625 19.7229 55.8105 18.9707 54.8824 18.9707C47.6971 18.9707 42.2264 16.9057 37.6663 12.4719C37.014 11.8375 35.9759 11.8378 35.3238 12.4719C30.7642 16.9057 25.2944 18.9707 18.1095 18.9707C17.1816 18.9707 16.4294 19.7229 16.4294 20.6508C16.4294 21.8354 16.4061 23.0601 16.3812 24.3562C16.1509 36.4164 15.8355 52.9333 35.9448 59.9036C36.1231 59.9654 36.309 59.9964 36.4949 59.9964C36.6809 59.9964 36.867 59.9654 37.0451 59.9036C57.156 52.9331 56.841 36.4157 56.6107 24.3553ZM36.4952 56.5333C19.2488 50.2682 19.5096 36.5439 19.741 24.4203C19.7549 23.6927 19.7683 22.9875 19.7777 22.2962C26.5072 22.0121 31.8885 19.9729 36.4952 15.9599C41.1023 19.9729 46.4845 22.0124 53.2144 22.2962C53.2238 22.9873 53.2372 23.692 53.2511 24.4192C53.4823 36.5432 53.7429 50.268 36.4952 56.5333Z" fill="white"/>
<path d="M42.2808 30.1598L34.1717 38.2686L30.7113 34.8082C30.0551 34.1523 28.9913 34.1523 28.3354 34.8082C27.6792 35.4646 27.6792 36.5282 28.3354 37.1843L32.9837 41.8327C33.3117 42.1606 33.7418 42.3246 34.1717 42.3246C34.6016 42.3246 35.0317 42.1606 35.3596 41.8327L44.6565 32.536C45.3129 31.8798 45.3129 30.816 44.6567 30.1601C44.0008 29.5039 42.937 29.5037 42.2808 30.1598Z" fill="white"/>
</g>
<defs>
<clipPath id="clip0_548_1114">
<rect width="48" height="48" fill="white" transform="translate(12.4961 11.9961)"/>
</clipPath>
</defs>
</svg>
