<svg width="106" height="25" viewBox="0 0 106 25" fill="none" xmlns="http://www.w3.org/2000/svg">
<path d="M8.29908 7.80229L11.0412 12.6924L8.23988 17.9204L5.33495 12.9124L8.29908 7.80229Z" fill="#4671F6"/>
<path d="M7.0646 5.60082L2.82786 12.9049L7.03811 20.1633L5.65371 22.7469L0 13L5.70171 3.17035L7.0646 5.60082Z" fill="#4671F6"/>
<path d="M9.55414 7.08972L12.2895 11.9678L18.3594 12.0757L15.4673 7.08972L9.55414 7.08972Z" fill="#4671F6"/>
<path d="M20.8882 12.1206L16.7143 4.92487H8.3402L6.98045 2.5H18.2716L23.883 12.1738L20.8882 12.1206Z" fill="#4671F6"/>
<path d="M18.4713 13.5261L12.2906 13.4163L9.44866 18.72L15.4586 18.72L18.4713 13.5261Z" fill="#4671F6"/>
<path d="M8.28867 20.8849H16.7143L20.9571 13.5703L24 13.6244L18.2716 23.5L6.88741 23.5L8.28867 20.8849Z" fill="#4671F6"/>
<path d="M33.344 9.14V11.94H37.104V13.716H33.344V16.676H37.584V18.5H31.104V7.316H37.584V9.14H33.344ZM39.0436 14.036C39.0436 13.14 39.2196 12.3453 39.5716 11.652C39.9343 10.9587 40.4196 10.4253 41.0276 10.052C41.6463 9.67867 42.3343 9.492 43.0916 9.492C43.753 9.492 44.329 9.62533 44.8196 9.892C45.321 10.1587 45.721 10.4947 46.0196 10.9V9.636H48.2756V18.5H46.0196V17.204C45.7316 17.62 45.3316 17.9667 44.8196 18.244C44.3183 18.5107 43.737 18.644 43.0756 18.644C42.329 18.644 41.6463 18.452 41.0276 18.068C40.4196 17.684 39.9343 17.1453 39.5716 16.452C39.2196 15.748 39.0436 14.9427 39.0436 14.036ZM46.0196 14.068C46.0196 13.524 45.913 13.06 45.6996 12.676C45.4863 12.2813 45.1983 11.9827 44.8356 11.78C44.473 11.5667 44.0836 11.46 43.6676 11.46C43.2516 11.46 42.8676 11.5613 42.5156 11.764C42.1636 11.9667 41.8756 12.2653 41.6516 12.66C41.4383 13.044 41.3316 13.5027 41.3316 14.036C41.3316 14.5693 41.4383 15.0387 41.6516 15.444C41.8756 15.8387 42.1636 16.1427 42.5156 16.356C42.8783 16.5693 43.2623 16.676 43.6676 16.676C44.0836 16.676 44.473 16.5747 44.8356 16.372C45.1983 16.1587 45.4863 15.86 45.6996 15.476C45.913 15.0813 46.0196 14.612 46.0196 14.068ZM53.8554 18.644C53.13 18.644 52.4794 18.516 51.9034 18.26C51.3274 17.9933 50.8687 17.636 50.5274 17.188C50.1967 16.74 50.0154 16.244 49.9834 15.7H52.2394C52.282 16.0413 52.4474 16.324 52.7354 16.548C53.034 16.772 53.402 16.884 53.8394 16.884C54.266 16.884 54.5967 16.7987 54.8314 16.628C55.0767 16.4573 55.1994 16.2387 55.1994 15.972C55.1994 15.684 55.05 15.4707 54.7514 15.332C54.4634 15.1827 53.9994 15.0227 53.3594 14.852C52.698 14.692 52.154 14.5267 51.7274 14.356C51.3114 14.1853 50.9487 13.924 50.6394 13.572C50.3407 13.22 50.1914 12.7453 50.1914 12.148C50.1914 11.6573 50.33 11.2093 50.6074 10.804C50.8954 10.3987 51.3007 10.0787 51.8234 9.844C52.3567 9.60933 52.9807 9.492 53.6954 9.492C54.7514 9.492 55.594 9.75867 56.2234 10.292C56.8527 10.8147 57.1994 11.524 57.2634 12.42H55.1194C55.0874 12.068 54.938 11.7907 54.6714 11.588C54.4154 11.3747 54.0687 11.268 53.6314 11.268C53.226 11.268 52.9114 11.3427 52.6874 11.492C52.474 11.6413 52.3674 11.8493 52.3674 12.116C52.3674 12.4147 52.5167 12.644 52.8154 12.804C53.114 12.9533 53.578 13.108 54.2074 13.268C54.8474 13.428 55.3754 13.5933 55.7914 13.764C56.2074 13.9347 56.5647 14.2013 56.8634 14.564C57.1727 14.916 57.3327 15.3853 57.3434 15.972C57.3434 16.484 57.1994 16.9427 56.9114 17.348C56.634 17.7533 56.2287 18.0733 55.6954 18.308C55.1727 18.532 54.5594 18.644 53.8554 18.644ZM67.6621 9.636L62.1741 22.692H59.7901L61.7101 18.276L58.1581 9.636H60.6701L62.9581 15.828L65.2781 9.636H67.6621ZM68.3256 12.9C68.3256 11.8013 68.571 10.82 69.0616 9.956C69.563 9.08133 70.2403 8.404 71.0936 7.924C71.9576 7.43333 72.923 7.188 73.9896 7.188C75.2376 7.188 76.331 7.508 77.2696 8.148C78.2083 8.788 78.8643 9.67333 79.2376 10.804H76.6616C76.4056 10.2707 76.043 9.87067 75.5736 9.604C75.115 9.33733 74.5816 9.204 73.9736 9.204C73.323 9.204 72.7416 9.35867 72.2296 9.668C71.7283 9.96667 71.3336 10.3933 71.0456 10.948C70.7683 11.5027 70.6296 12.1533 70.6296 12.9C70.6296 13.636 70.7683 14.2867 71.0456 14.852C71.3336 15.4067 71.7283 15.8387 72.2296 16.148C72.7416 16.4467 73.323 16.596 73.9736 16.596C74.5816 16.596 75.115 16.4627 75.5736 16.196C76.043 15.9187 76.4056 15.5133 76.6616 14.98H79.2376C78.8643 16.1213 78.2083 17.012 77.2696 17.652C76.3416 18.2813 75.2483 18.596 73.9896 18.596C72.923 18.596 71.9576 18.356 71.0936 17.876C70.2403 17.3853 69.563 16.708 69.0616 15.844C68.571 14.98 68.3256 13.9987 68.3256 12.9ZM85.0869 18.644C84.2335 18.644 83.4655 18.4573 82.7829 18.084C82.1002 17.7 81.5615 17.1613 81.1669 16.468C80.7829 15.7747 80.5909 14.9747 80.5909 14.068C80.5909 13.1613 80.7882 12.3613 81.1829 11.668C81.5882 10.9747 82.1375 10.4413 82.8309 10.068C83.5242 9.684 84.2975 9.492 85.1509 9.492C86.0042 9.492 86.7775 9.684 87.4709 10.068C88.1642 10.4413 88.7082 10.9747 89.1029 11.668C89.5082 12.3613 89.7109 13.1613 89.7109 14.068C89.7109 14.9747 89.5029 15.7747 89.0869 16.468C88.6815 17.1613 88.1269 17.7 87.4229 18.084C86.7295 18.4573 85.9509 18.644 85.0869 18.644ZM85.0869 16.692C85.4922 16.692 85.8709 16.596 86.2229 16.404C86.5855 16.2013 86.8735 15.9027 87.0869 15.508C87.3002 15.1133 87.4069 14.6333 87.4069 14.068C87.4069 13.2253 87.1829 12.58 86.7349 12.132C86.2975 11.6733 85.7589 11.444 85.1189 11.444C84.4789 11.444 83.9402 11.6733 83.5029 12.132C83.0762 12.58 82.8629 13.2253 82.8629 14.068C82.8629 14.9107 83.0709 15.5613 83.4869 16.02C83.9135 16.468 84.4469 16.692 85.0869 16.692ZM92.49 8.58C92.0953 8.58 91.7647 8.45733 91.498 8.212C91.242 7.956 91.114 7.64133 91.114 7.268C91.114 6.89467 91.242 6.58533 91.498 6.34C91.7647 6.084 92.0953 5.956 92.49 5.956C92.8847 5.956 93.21 6.084 93.466 6.34C93.7327 6.58533 93.866 6.89467 93.866 7.268C93.866 7.64133 93.7327 7.956 93.466 8.212C93.21 8.45733 92.8847 8.58 92.49 8.58ZM93.594 9.636V18.5H91.354V9.636H93.594ZM100.719 9.508C101.775 9.508 102.628 9.844 103.279 10.516C103.93 11.1773 104.255 12.1053 104.255 13.3V18.5H102.015V13.604C102.015 12.9 101.839 12.3613 101.487 11.988C101.135 11.604 100.655 11.412 100.047 11.412C99.4285 11.412 98.9378 11.604 98.5751 11.988C98.2231 12.3613 98.0471 12.9 98.0471 13.604V18.5H95.8071V9.636H98.0471V10.74C98.3458 10.356 98.7245 10.0573 99.1831 9.844C99.6525 9.62 100.164 9.508 100.719 9.508Z" fill="white"/>
</svg>
