<svg width="73" height="72" viewBox="0 0 73 72" fill="none" xmlns="http://www.w3.org/2000/svg">
<rect x="0.5" width="72" height="72" rx="20" fill="#4671F6"/>
<path d="M38.8269 22.3768L38.8299 22.9359C38.8299 25.2595 38.6576 27.3779 38.3979 28.7589L38.1705 29.6177C38.0439 30.0725 37.8776 30.5903 37.7041 30.8547C37.0692 31.8217 35.8278 32.42 34.4991 32.42H34.3834C33.5173 32.3974 31.6977 31.7974 31.6977 31.7765C28.7697 30.8066 23.1209 27.8794 20.512 25.7926L19.7539 25.166C19.5553 24.9962 19.3323 24.7953 19.1938 24.6386C18.7313 24.1551 18.5 23.5568 18.5 22.9585C18.5 22.2906 18.7596 21.6697 19.2505 21.1619L20.0295 20.4982L20.204 20.3566C22.5712 18.3304 28.7522 15.0171 31.9857 14.0031L32.4738 13.8554C33.0613 13.6892 33.8844 13.4909 34.3834 13.4727C35.0183 13.4727 35.6249 13.5892 36.2031 13.8188C36.9252 14.1405 37.5012 14.6484 37.8198 15.2467C38.0227 15.6606 38.3412 16.9042 38.3412 16.9268C38.6332 18.1807 38.8026 20.1592 38.8269 22.3768ZM54.5 22.947C54.5 24.2706 53.1538 25.3437 51.4935 25.3437L44.095 24.8272C42.7925 24.8272 41.7365 23.9854 41.7365 22.947C41.7365 21.907 42.7925 21.0669 44.095 21.0669L51.4935 20.5503C53.1538 20.5503 54.5 21.6235 54.5 22.947Z" fill="white"/>
<path d="M34.177 48.2743L34.174 48.8334C34.174 51.1571 34.3463 53.2755 34.606 54.6564L34.8334 55.5152C34.96 55.97 35.1263 56.4878 35.2998 56.7522C35.9347 57.7192 37.1761 58.3175 38.5048 58.3175H38.6205C39.4866 58.2949 41.3062 57.6949 41.3062 57.674C44.2342 56.7041 49.883 53.7769 52.4919 51.6901L53.25 51.0636C53.4486 50.8938 53.6716 50.6928 53.8101 50.5361C54.2726 50.0526 54.5039 49.4543 54.5039 48.856C54.5039 48.1882 54.2443 47.5672 53.7534 47.0594L52.9745 46.3957L52.7999 46.2541C50.4327 44.2279 44.2517 40.9146 41.0183 39.9006L40.5301 39.7529C39.9426 39.5867 39.1195 39.3884 38.6205 39.3702C37.9856 39.3702 37.379 39.4867 36.8008 39.7163C36.0787 40.038 35.5027 40.5459 35.1841 41.1442C34.9812 41.5582 34.6627 42.8017 34.6627 42.8243C34.3707 44.0782 34.2013 46.0567 34.177 48.2743ZM18.5039 48.8446C18.5039 50.1681 19.8501 51.2412 21.5104 51.2412L28.9089 50.7247C30.2114 50.7247 31.2674 49.8829 31.2674 48.8446C31.2674 47.8045 30.2114 46.9644 28.9089 46.9644L21.5104 46.4479C19.8501 46.4479 18.5039 47.521 18.5039 48.8446Z" fill="white"/>
</svg>
