<svg width="73" height="72" viewBox="0 0 73 72" fill="none" xmlns="http://www.w3.org/2000/svg">
<rect x="0.5" width="72" height="72" rx="20" fill="#4671F6"/>
<g clip-path="url(#clip0_548_1093)">
<path d="M53.4898 16.6335H58.2286V54.2478H53.4898V16.6335ZM44.0538 17.9949L43.3977 18.1987C42.5763 18.4583 41.6109 18.0968 41.2788 17.4088C41.1196 17.0756 41.112 16.7075 41.258 16.3709C41.4274 15.9814 41.7873 15.6767 42.2442 15.5342L49.6424 13.2297L50.5429 19.8218C50.5936 20.1574 50.4993 20.5002 50.2767 20.7841C50.0044 21.133 49.5669 21.3591 49.0761 21.4058C49.0172 21.4118 48.9513 21.4149 48.8879 21.4149C48.0508 21.4149 47.3399 20.8815 47.2345 20.1757L47.1204 19.1783C38.5702 31.0172 18.8813 43.7059 18.0269 44.2525C17.7369 44.4381 17.3901 44.5369 17.023 44.5369C16.5281 44.5369 16.0627 44.3544 15.7468 44.0345C15.4562 43.7419 15.3204 43.3687 15.3624 42.9854C15.4065 42.5874 15.6454 42.2213 16.0185 41.984C16.2188 41.8552 35.7201 29.2487 44.0538 17.9949ZM49.6597 24.988V54.2468H44.9219V24.988H49.6597ZM41.3741 33.6822V54.2478H36.6348V33.6822H41.3741ZM32.8046 42.7141V54.2463H28.0663V42.7141H32.8046ZM23.7453 47.2324V54.2468H19.0075V47.2324H23.7453ZM59.7026 58.7625H11.7031V55.2466H59.7031L59.7026 58.7625Z" fill="white"/>
</g>
<defs>
<clipPath id="clip0_548_1093">
<rect width="48" height="48" fill="white" transform="translate(11.7031 11.9961)"/>
</clipPath>
</defs>
</svg>
